STARTFONT 2.3
FONT -FontForge-Butcherman-Book-R-Normal--8-80-72-72-P-43-ISO10646-1
SIZE 8 72 72  4
FONTBOUNDINGBOX 13 16 -1 -6
COMMENT "Generated by fontforge, http://fontforge.sourceforge.net"
COMMENT "Copyright (c) 2011, Typomondo, with Reserved Font Name  "Butcherman"."
STARTPROPERTIES 41
FOUNDRY "FontForge"
FAMILY_NAME "Butcherman"
WEIGHT_NAME "Book"
SLANT "R"
SETWIDTH_NAME "Normal"
ADD_STYLE_NAME ""
PIXEL_SIZE 8
POINT_SIZE 80
RESOLUTION_X 72
RESOLUTION_Y 72
SPACING "P"
AVERAGE_WIDTH 43
CHARSET_REGISTRY "ISO10646"
CHARSET_ENCODING "1"
FONTNAME_REGISTRY ""
CHARSET_COLLECTIONS "ISO8859-2 ISO8859-9 ISO8859-4 ISO10646-1"
BITS_PER_PIXEL 4
FONT_NAME "Butcherman-Regular"
FACE_NAME "Butcherman Regular"
COPYRIGHT "Copyright (c) 2011, Typomondo, with Reserved Font Name  "Butcherman"."
FONT_VERSION "001.004"
FONT_ASCENT 6
FONT_DESCENT 2
UNDERLINE_POSITION -1
UNDERLINE_THICKNESS 1
X_HEIGHT 5
CAP_HEIGHT 5
DEFAULT_CHAR 3
RAW_ASCENT 799
RAW_DESCENT 200
NORM_SPACE 1
RELATIVE_WEIGHT 40
RELATIVE_SETWIDTH 50
SUPERSCRIPT_X 0
SUPERSCRIPT_Y 2
SUPERSCRIPT_SIZE 4
SUBSCRIPT_X 0
SUBSCRIPT_Y 0
SUBSCRIPT_SIZE 4
AVG_LOWERCASE_WIDTH 46
AVG_UPPERCASE_WIDTH 44
ENDPROPERTIES
CHARS 331
STARTCHAR NULL.dup1
ENCODING 0
SWIDTH 161 0
DWIDTH 1 0
BBX 1 1 0 0
BITMAP
00
ENDCHAR
STARTCHAR CR
ENCODING 13
SWIDTH 161 0
DWIDTH 1 0
BBX 1 1 0 0
BITMAP
00
ENDCHAR
STARTCHAR space
ENCODING 32
SWIDTH 161 0
DWIDTH 1 0
BBX 1 1 0 0
BITMAP
00
ENDCHAR
STARTCHAR exclam
ENCODING 33
SWIDTH 350 0
DWIDTH 3 0
BBX 3 10 0 0
BITMAP
8C50
8F40
8F30
5F10
3F00
2E00
0300
7C50
7F70
4830
ENDCHAR
STARTCHAR quotedbl
ENCODING 34
SWIDTH 541 0
DWIDTH 4 0
BBX 4 3 0 3
BITMAP
8C7C
6C5B
3A39
ENDCHAR
STARTCHAR numbersign
ENCODING 35
SWIDTH 583 0
DWIDTH 5 0
BBX 5 8 0 -1
BITMAP
002110
035730
3BAD40
4EDE40
194600
BDC900
85A300
506000
ENDCHAR
STARTCHAR dollar
ENCODING 36
SWIDTH 534 0
DWIDTH 4 0
BBX 4 10 0 -2
BITMAP
0150
0260
1AE6
8FFE
AFDD
8FA4
18C8
4FD6
0470
0350
ENDCHAR
STARTCHAR percent
ENCODING 37
SWIDTH 828 0
DWIDTH 7 0
BBX 7 8 0 -1
BITMAP
00002000
6A156000
BE582000
A94A3D20
49385F40
00737C40
00801600
00500000
ENDCHAR
STARTCHAR ampersand
ENCODING 38
SWIDTH 522 0
DWIDTH 4 0
BBX 4 4 0 1
BITMAP
08B0
7DE9
7DE8
08A0
ENDCHAR
STARTCHAR quotesingle
ENCODING 39
SWIDTH 300 0
DWIDTH 2 0
BBX 2 3 0 3
BITMAP
7C
6D
3B
ENDCHAR
STARTCHAR parenleft
ENCODING 40
SWIDTH 372 0
DWIDTH 3 0
BBX 3 8 0 -1
BITMAP
0390
1EB0
7F90
9D00
AB00
9C00
4F40
0970
ENDCHAR
STARTCHAR parenright
ENCODING 41
SWIDTH 338 0
DWIDTH 3 0
BBX 3 8 0 -1
BITMAP
7400
AF20
9F50
2E40
0C30
0D20
2E00
C500
ENDCHAR
STARTCHAR asterisk
ENCODING 42
SWIDTH 513 0
DWIDTH 4 0
BBX 4 6 0 1
BITMAP
0020
0BA1
5DD5
5CD5
0CB1
0100
ENDCHAR
STARTCHAR plus
ENCODING 43
SWIDTH 458 0
DWIDTH 4 0
BBX 4 4 0 1
BITMAP
0630
6DB3
6DB2
0730
ENDCHAR
STARTCHAR comma
ENCODING 44
SWIDTH 361 0
DWIDTH 3 0
BBX 3 5 0 -2
BITMAP
6A40
9F70
6C70
0750
0110
ENDCHAR
STARTCHAR hyphen
ENCODING 45
SWIDTH 478 0
DWIDTH 4 0
BBX 4 2 0 2
BITMAP
7DC4
5AA2
ENDCHAR
STARTCHAR period
ENCODING 46
SWIDTH 374 0
DWIDTH 3 0
BBX 3 3 0 0
BITMAP
6C60
6F80
4840
ENDCHAR
STARTCHAR slash
ENCODING 47
SWIDTH 291 0
DWIDTH 2 0
BBX 3 8 0 -1
BITMAP
0110
0730
0A00
1900
5500
8100
8000
5000
ENDCHAR
STARTCHAR zero
ENCODING 48
SWIDTH 528 0
DWIDTH 4 0
BBX 4 7 0 -1
BITMAP
2CC3
9FFC
9EEC
8AAC
7AA9
4EE4
0250
ENDCHAR
STARTCHAR one
ENCODING 49
SWIDTH 366 0
DWIDTH 3 0
BBX 3 6 0 0
BITMAP
5B60
7F80
1F70
0F50
0D40
0B40
ENDCHAR
STARTCHAR two
ENCODING 50
SWIDTH 575 0
DWIDTH 5 0
BBX 5 7 0 -1
BITMAP
2DD400
9FFD00
8FEE00
46CB00
03F510
6EFF60
563520
ENDCHAR
STARTCHAR three
ENCODING 51
SWIDTH 517 0
DWIDTH 4 0
BBX 4 7 0 -1
BITMAP
4CC1
AFF9
9EEB
34D9
03B9
0DD7
0351
ENDCHAR
STARTCHAR four
ENCODING 52
SWIDTH 466 0
DWIDTH 4 0
BBX 4 8 0 -2
BITMAP
4DB2
5F60
6F20
6E82
8CD2
AFF7
11B2
0060
ENDCHAR
STARTCHAR five
ENCODING 53
SWIDTH 583 0
DWIDTH 5 0
BBX 5 7 0 -1
BITMAP
8EEC50
8FFF40
8EDF20
8D7300
16A900
0DD700
035100
ENDCHAR
STARTCHAR six
ENCODING 54
SWIDTH 582 0
DWIDTH 5 0
BBX 5 7 0 -1
BITMAP
3CC700
AFFF40
9FDF30
7D5C00
3F9D00
1FBF00
058600
ENDCHAR
STARTCHAR seven
ENCODING 55
SWIDTH 624 0
DWIDTH 5 0
BBX 5 7 0 -1
BITMAP
9DEEC0
AFFF80
8EDF40
004E10
00A800
01E100
038000
ENDCHAR
STARTCHAR eight
ENCODING 56
SWIDTH 459 0
DWIDTH 4 0
BBX 4 7 0 -1
BITMAP
6DC2
AFF5
8CE3
4CD0
3BC0
2CC0
0420
ENDCHAR
STARTCHAR nine
ENCODING 57
SWIDTH 584 0
DWIDTH 5 0
BBX 5 7 0 -1
BITMAP
1AD800
8FFF30
AFCF50
6FCF40
198E00
4FD800
024100
ENDCHAR
STARTCHAR colon
ENCODING 58
SWIDTH 386 0
DWIDTH 3 0
BBX 3 7 0 0
BITMAP
6B60
6F90
4950
0000
6C60
7F90
3840
ENDCHAR
STARTCHAR semicolon
ENCODING 59
SWIDTH 375 0
DWIDTH 3 0
BBX 3 9 0 -2
BITMAP
6C60
7F80
5840
0000
6A50
7F80
5B70
0760
0110
ENDCHAR
STARTCHAR less
ENCODING 60
SWIDTH 459 0
DWIDTH 4 0
BBX 4 5 0 0
BITMAP
0BD2
5F70
9F20
1CB1
0162
ENDCHAR
STARTCHAR equal
ENCODING 61
SWIDTH 485 0
DWIDTH 4 0
BBX 4 3 0 2
BITMAP
6DC4
2552
4AA3
ENDCHAR
STARTCHAR greater
ENCODING 62
SWIDTH 432 0
DWIDTH 3 0
BBX 4 5 0 0
BITMAP
7E40
0CC0
09F1
5F60
3500
ENDCHAR
STARTCHAR question
ENCODING 63
SWIDTH 577 0
DWIDTH 5 0
BBX 4 8 0 -1
BITMAP
0230
5FF9
8FFF
49AE
00E7
0190
0590
05B0
ENDCHAR
STARTCHAR at
ENCODING 64
SWIDTH 930 0
DWIDTH 7 0
BBX 8 9 0 -2
BITMAP
009DA200
09877C20
37CFF7A0
92DEF2F1
A287E0F3
94A7F3C1
598DAD80
0C512000
018B9000
ENDCHAR
STARTCHAR A
ENCODING 65
SWIDTH 494 0
DWIDTH 4 0
BBX 4 8 0 -2
BITMAP
5CB4
2FF1
2FF0
2DE0
2DE0
2DC0
1570
0010
ENDCHAR
STARTCHAR B
ENCODING 66
SWIDTH 517 0
DWIDTH 4 0
BBX 4 7 0 -1
BITMAP
7DE8
3FFC
2FCA
1FB7
0FB5
0EC5
0240
ENDCHAR
STARTCHAR C
ENCODING 67
SWIDTH 504 0
DWIDTH 4 0
BBX 4 7 0 -1
BITMAP
2CE5
AFFC
BFDC
8C46
6C54
2FE4
0360
ENDCHAR
STARTCHAR D
ENCODING 68
SWIDTH 522 0
DWIDTH 4 0
BBX 4 7 0 -1
BITMAP
6BC7
6FFF
3FDE
2F3C
0F59
0CE6
0370
ENDCHAR
STARTCHAR E
ENCODING 69
SWIDTH 570 0
DWIDTH 5 0
BBX 5 7 0 -1
BITMAP
7DDC10
4FFD00
3FB800
2FA100
0F7100
0CE300
022100
ENDCHAR
STARTCHAR F
ENCODING 70
SWIDTH 559 0
DWIDTH 4 0
BBX 4 7 0 -1
BITMAP
7CCB
1FFC
0FDA
0DC5
0C93
0D60
0420
ENDCHAR
STARTCHAR G
ENCODING 71
SWIDTH 499 0
DWIDTH 4 0
BBX 4 7 0 -1
BITMAP
4CB3
AFFB
9EEB
7977
6BC9
2ED8
0461
ENDCHAR
STARTCHAR H
ENCODING 72
SWIDTH 726 0
DWIDTH 6 0
BBX 6 8 0 -2
BITMAP
6B79C4
4F6AF1
1F6BB0
0ECE80
0C9E60
0B7E30
020510
001100
ENDCHAR
STARTCHAR I
ENCODING 73
SWIDTH 401 0
DWIDTH 3 0
BBX 3 7 0 -1
BITMAP
9EB0
2F90
2F70
1F60
0E50
0B40
0210
ENDCHAR
STARTCHAR J
ENCODING 74
SWIDTH 455 0
DWIDTH 4 0
BBX 5 7 -1 -1
BITMAP
008C20
007E00
008C00
008A00
1D8700
0DD400
011000
ENDCHAR
STARTCHAR K
ENCODING 75
SWIDTH 580 0
DWIDTH 5 0
BBX 5 7 0 -1
BITMAP
7C6C20
2FB700
0EF300
0CF400
0AE500
097800
011200
ENDCHAR
STARTCHAR L
ENCODING 76
SWIDTH 416 0
DWIDTH 3 0
BBX 4 7 0 -1
BITMAP
8D60
6F30
4F20
2F20
1F41
0EF7
0242
ENDCHAR
STARTCHAR M
ENCODING 77
SWIDTH 740 0
DWIDTH 6 0
BBX 6 7 0 -1
BITMAP
7D9CD4
4FDFF1
1FFFE0
0FEEE0
0CCBD0
0988A0
010010
ENDCHAR
STARTCHAR N
ENCODING 78
SWIDTH 610 0
DWIDTH 5 0
BBX 5 8 0 -2
BITMAP
7C7C40
4FAF10
3FFF00
1FFD00
0DCB00
0C8A00
064400
011000
ENDCHAR
STARTCHAR O
ENCODING 79
SWIDTH 504 0
DWIDTH 4 0
BBX 4 7 0 -1
BITMAP
2BC4
BFFC
AEEC
8AAC
6BA8
3EE4
0250
ENDCHAR
STARTCHAR P
ENCODING 80
SWIDTH 545 0
DWIDTH 4 0
BBX 5 7 0 -1
BITMAP
6DDB00
2FFF20
0FBE00
0D7D00
0BC600
097000
012000
ENDCHAR
STARTCHAR Q
ENCODING 81
SWIDTH 520 0
DWIDTH 4 0
BBX 4 7 0 -1
BITMAP
2AC4
AFFD
BFBE
8E5E
5F7C
0CFA
0159
ENDCHAR
STARTCHAR R
ENCODING 82
SWIDTH 599 0
DWIDTH 5 0
BBX 5 7 0 -1
BITMAP
6CDB20
1FFF90
0EBE80
0CAE60
09DE10
088F10
012410
ENDCHAR
STARTCHAR S
ENCODING 83
SWIDTH 504 0
DWIDTH 4 0
BBX 4 7 0 -1
BITMAP
2AD5
9FFD
CEEC
8E93
28D8
5EE4
0340
ENDCHAR
STARTCHAR T
ENCODING 84
SWIDTH 622 0
DWIDTH 5 0
BBX 5 7 0 -1
BITMAP
6CDC50
4FFF50
2EFE40
00F400
00F300
00E300
00A200
ENDCHAR
STARTCHAR U
ENCODING 85
SWIDTH 637 0
DWIDTH 5 0
BBX 5 7 0 -1
BITMAP
7D4C70
4F5F60
2F6F30
1F5F00
0F8E00
0BC900
011100
ENDCHAR
STARTCHAR V
ENCODING 86
SWIDTH 570 0
DWIDTH 5 0
BBX 5 7 0 -1
BITMAP
7D4D40
3F7D00
2FA900
0FC500
0DF200
0BD000
046000
ENDCHAR
STARTCHAR W
ENCODING 87
SWIDTH 777 0
DWIDTH 6 0
BBX 6 6 0 0
BITMAP
5B69A9
1EBDE4
0AFFC0
04FF90
01FC60
009A20
ENDCHAR
STARTCHAR X
ENCODING 88
SWIDTH 587 0
DWIDTH 5 0
BBX 5 7 0 -1
BITMAP
5D7B40
0CE900
06F400
04F100
05F100
07C500
032200
ENDCHAR
STARTCHAR Y
ENCODING 89
SWIDTH 688 0
DWIDTH 6 0
BBX 6 7 0 -1
BITMAP
5D68A3
06EE80
00DF00
007E00
004D00
003C00
001200
ENDCHAR
STARTCHAR Z
ENCODING 90
SWIDTH 695 0
DWIDTH 6 0
BBX 6 7 0 -1
BITMAP
6DEDA3
4FFFD0
0EDF60
01C800
03D100
09FA00
001100
ENDCHAR
STARTCHAR bracketleft
ENCODING 91
SWIDTH 410 0
DWIDTH 3 0
BBX 4 8 0 -1
BITMAP
6DC0
6EB0
7B00
8B00
8B00
7B00
5ED1
1110
ENDCHAR
STARTCHAR backslash
ENCODING 92
SWIDTH 292 0
DWIDTH 2 0
BBX 3 8 0 -1
BITMAP
2000
A000
9100
5600
0A00
0900
0620
0230
ENDCHAR
STARTCHAR bracketright
ENCODING 93
SWIDTH 407 0
DWIDTH 3 0
BBX 3 8 0 -1
BITMAP
9D80
8DA0
07B0
06B0
06C0
06B0
BEB0
1120
ENDCHAR
STARTCHAR asciicircum
ENCODING 94
SWIDTH 523 0
DWIDTH 4 0
BBX 4 4 0 5
BITMAP
0560
2FE4
896B
2102
ENDCHAR
STARTCHAR underscore
ENCODING 95
SWIDTH 452 0
DWIDTH 4 0
BBX 4 2 0 -1
BITMAP
9FF3
2320
ENDCHAR
STARTCHAR grave
ENCODING 96
SWIDTH 444 0
DWIDTH 4 0
BBX 3 2 0 6
BITMAP
2C20
27A0
ENDCHAR
STARTCHAR a
ENCODING 97
SWIDTH 479 0
DWIDTH 4 0
BBX 4 7 0 -1
BITMAP
7EE8
2FF4
2FF3
2EE3
3DD3
3EE2
2651
ENDCHAR
STARTCHAR b
ENCODING 98
SWIDTH 610 0
DWIDTH 5 0
BBX 5 7 0 -1
BITMAP
6BCD40
2FFFA0
0EDE90
0CBD40
0ACE10
08AE10
025600
ENDCHAR
STARTCHAR c
ENCODING 99
SWIDTH 534 0
DWIDTH 4 0
BBX 5 7 0 -1
BITMAP
2CE700
BFFF10
BFDF10
7E3900
5F3400
1FD600
034000
ENDCHAR
STARTCHAR d
ENCODING 100
SWIDTH 573 0
DWIDTH 5 0
BBX 5 7 0 -1
BITMAP
7CD900
5FFF60
1FFF60
0D6D30
0A6C00
09BB00
057400
ENDCHAR
STARTCHAR e
ENCODING 101
SWIDTH 632 0
DWIDTH 5 0
BBX 5 7 0 -1
BITMAP
6CDC70
4FFF40
1FDE10
0EA400
0CC600
09D800
013300
ENDCHAR
STARTCHAR f
ENCODING 102
SWIDTH 559 0
DWIDTH 4 0
BBX 4 7 0 -1
BITMAP
7DCB
1FFC
0FDA
0DC4
0C93
0D60
0420
ENDCHAR
STARTCHAR g
ENCODING 103
SWIDTH 546 0
DWIDTH 4 0
BBX 5 7 0 -1
BITMAP
3CC600
BFFF20
AFEF30
7C4B00
4E9C00
1FBD00
058500
ENDCHAR
STARTCHAR h
ENCODING 104
SWIDTH 730 0
DWIDTH 6 0
BBX 6 7 0 -1
BITMAP
6C79D5
3F79F1
1F6AC0
0DDE80
0B9D60
0A7E40
010410
ENDCHAR
STARTCHAR i
ENCODING 105
SWIDTH 412 0
DWIDTH 3 0
BBX 3 7 0 -1
BITMAP
7DB0
1F90
1F60
0F60
0C40
0B30
0110
ENDCHAR
STARTCHAR j
ENCODING 106
SWIDTH 458 0
DWIDTH 4 0
BBX 5 7 -1 -1
BITMAP
00BC30
009F10
008E00
007D00
1E7C00
0BF900
002100
ENDCHAR
STARTCHAR k
ENCODING 107
SWIDTH 636 0
DWIDTH 5 0
BBX 5 7 0 -1
BITMAP
6C6D70
2FAB00
0CD700
0BF300
08E700
077C00
011200
ENDCHAR
STARTCHAR l
ENCODING 108
SWIDTH 438 0
DWIDTH 4 0
BBX 4 7 0 -1
BITMAP
6DA1
3F60
2F60
0D50
0C61
0BE8
0223
ENDCHAR
STARTCHAR m
ENCODING 109
SWIDTH 770 0
DWIDTH 6 0
BBX 6 7 0 -1
BITMAP
5AA9E7
4FEDF2
3FFFE0
1FFFC0
0ECC90
0BAA50
020010
ENDCHAR
STARTCHAR n
ENCODING 110
SWIDTH 664 0
DWIDTH 5 0
BBX 6 7 0 -1
BITMAP
8E7BB1
5FCC90
4FFE60
2FFF40
0FBF10
0D8D00
043500
ENDCHAR
STARTCHAR o
ENCODING 111
SWIDTH 545 0
DWIDTH 4 0
BBX 5 7 0 -1
BITMAP
3CD700
BFFF20
AFDF30
8C7F10
5C8C00
2EE700
014200
ENDCHAR
STARTCHAR p
ENCODING 112
SWIDTH 557 0
DWIDTH 4 0
BBX 5 7 0 -1
BITMAP
6DDB10
2FFF30
1FCF20
0E6E00
0CD800
0B6000
032000
ENDCHAR
STARTCHAR q
ENCODING 113
SWIDTH 562 0
DWIDTH 5 0
BBX 5 7 0 -1
BITMAP
3BE800
AFFF30
BFAF40
8F2F30
5F6F20
0BFE10
004910
ENDCHAR
STARTCHAR r
ENCODING 114
SWIDTH 616 0
DWIDTH 5 0
BBX 5 7 0 -1
BITMAP
6CDB40
1FFFB0
0ECE90
0CBD60
0ADE10
0A9D00
032600
ENDCHAR
STARTCHAR s
ENCODING 115
SWIDTH 481 0
DWIDTH 4 0
BBX 4 7 0 -1
BITMAP
2BC3
AFFA
CEE8
9E93
19E2
5ED1
0530
ENDCHAR
STARTCHAR t
ENCODING 116
SWIDTH 683 0
DWIDTH 5 0
BBX 6 7 0 -1
BITMAP
7DEEB1
4FFFB0
1EFE90
01B900
00A900
009900
006700
ENDCHAR
STARTCHAR u
ENCODING 117
SWIDTH 708 0
DWIDTH 6 0
BBX 6 6 0 0
BITMAP
5D77A4
3F89F1
0F9AC0
0D8BA0
0BAC70
05CD30
ENDCHAR
STARTCHAR v
ENCODING 118
SWIDTH 644 0
DWIDTH 5 0
BBX 5 7 0 -1
BITMAP
5C3C90
1F7F50
0C9F10
09CD00
04FA00
00E600
005100
ENDCHAR
STARTCHAR w
ENCODING 119
SWIDTH 704 0
DWIDTH 6 0
BBX 6 6 0 0
BITMAP
6B75A3
1EBCE0
0BFF80
06FF60
02FD50
009B20
ENDCHAR
STARTCHAR x
ENCODING 120
SWIDTH 599 0
DWIDTH 5 0
BBX 5 7 0 -1
BITMAP
5D7C40
0BE900
05F400
04F100
04F100
07C500
032200
ENDCHAR
STARTCHAR y
ENCODING 121
SWIDTH 604 0
DWIDTH 5 0
BBX 5 7 0 -1
BITMAP
5D4B40
09DB00
04F500
01F400
00D300
00D200
004000
ENDCHAR
STARTCHAR z
ENCODING 122
SWIDTH 622 0
DWIDTH 5 0
BBX 5 7 0 -1
BITMAP
7DED60
3FFF40
0DEE10
01D400
02C000
07F900
012200
ENDCHAR
STARTCHAR braceleft
ENCODING 123
SWIDTH 372 0
DWIDTH 3 0
BBX 3 8 0 -1
BITMAP
0390
1EB0
7F90
9D00
AB00
9C00
4F40
0970
ENDCHAR
STARTCHAR bar
ENCODING 124
SWIDTH 208 0
DWIDTH 2 0
BBX 2 8 0 -1
BITMAP
21
82
72
71
72
71
71
51
ENDCHAR
STARTCHAR braceright
ENCODING 125
SWIDTH 338 0
DWIDTH 3 0
BBX 3 8 0 -1
BITMAP
7400
AF20
9F50
2E40
0C30
0D20
2E00
C500
ENDCHAR
STARTCHAR asciitilde
ENCODING 126
SWIDTH 535 0
DWIDTH 4 0
BBX 4 3 0 4
BITMAP
0011
8CEB
1733
ENDCHAR
STARTCHAR exclamdown
ENCODING 161
SWIDTH 347 0
DWIDTH 3 0
BBX 3 10 0 0
BITMAP
6B50
7F70
5940
0600
2F00
2F10
5F10
8F30
8F60
5930
ENDCHAR
STARTCHAR cent
ENCODING 162
SWIDTH 552 0
DWIDTH 4 0
BBX 5 12 0 -3
BITMAP
001000
005000
006000
2BE800
AFFF10
AFDF10
7F3900
4F3400
1ED700
028000
005000
005000
ENDCHAR
STARTCHAR sterling
ENCODING 163
SWIDTH 589 0
DWIDTH 5 0
BBX 5 7 0 -1
BITMAP
3CC700
9FFF40
8FDF50
7E4B10
4F6200
2FFB00
133300
ENDCHAR
STARTCHAR yen
ENCODING 165
SWIDTH 692 0
DWIDTH 6 0
BBX 6 7 0 0
BITMAP
7D39A2
09CF70
25FF61
37DD61
36CD61
007B00
002300
ENDCHAR
STARTCHAR brokenbar
ENCODING 166
SWIDTH 201 0
DWIDTH 2 0
BBX 2 8 0 -1
BITMAP
30
82
81
20
00
71
71
51
ENDCHAR
STARTCHAR section
ENCODING 167
SWIDTH 477 0
DWIDTH 4 0
BBX 4 8 0 -2
BITMAP
1BE5
5FF7
4E93
6EE2
C9C2
5DC0
5BB0
1620
ENDCHAR
STARTCHAR dieresis
ENCODING 168
SWIDTH 633 0
DWIDTH 5 0
BBX 5 3 0 6
BITMAP
131520
7F5F60
392830
ENDCHAR
STARTCHAR copyright
ENCODING 169
SWIDTH 783 0
DWIDTH 6 0
BBX 6 8 0 -1
BITMAP
001100
078A61
56EF55
83FE76
81E436
71D827
197983
027830
ENDCHAR
STARTCHAR guillemotleft
ENCODING 171
SWIDTH 759 0
DWIDTH 6 0
BBX 6 5 0 0
BITMAP
09B4D6
5F5CD0
9E1E80
1C85E2
026155
ENDCHAR
STARTCHAR uni00AD
ENCODING 173
SWIDTH 446 0
DWIDTH 4 0
BBX 4 2 0 2
BITMAP
2441
5AA1
ENDCHAR
STARTCHAR registered
ENCODING 174
SWIDTH 780 0
DWIDTH 6 0
BBX 6 7 0 -1
BITMAP
089650
59FF56
90FC67
60DD47
529B45
0A7593
006720
ENDCHAR
STARTCHAR macron
ENCODING 175
SWIDTH 446 0
DWIDTH 4 0
BBX 4 2 0 2
BITMAP
2441
5AA1
ENDCHAR
STARTCHAR acute
ENCODING 180
SWIDTH 439 0
DWIDTH 4 0
BBX 3 2 0 6
BITMAP
0790
5A50
ENDCHAR
STARTCHAR mu
ENCODING 181
SWIDTH 679 0
DWIDTH 5 0
BBX 6 6 0 0
BITMAP
7D5993
5F6CE0
3F7CA0
1F6D70
0D8F50
08CD10
ENDCHAR
STARTCHAR paragraph
ENCODING 182
SWIDTH 591 0
DWIDTH 5 0
BBX 5 7 0 -1
BITMAP
6CDD50
BFDB10
8FCA00
3CA900
007600
007500
002200
ENDCHAR
STARTCHAR periodcentered
ENCODING 183
SWIDTH 388 0
DWIDTH 3 0
BBX 3 4 0 1
BITMAP
1320
7F90
5F90
1110
ENDCHAR
STARTCHAR cedilla
ENCODING 184
SWIDTH 270 0
DWIDTH 2 0
BBX 2 3 0 -3
BITMAP
73
4A
47
ENDCHAR
STARTCHAR guillemotright
ENCODING 187
SWIDTH 767 0
DWIDTH 6 0
BBX 6 5 0 0
BITMAP
7E3A80
0CB2F6
09E1CC
5F56F5
340660
ENDCHAR
STARTCHAR Agrave
ENCODING 192
SWIDTH 494 0
DWIDTH 4 0
BBX 5 10 -1 -2
BITMAP
0B4000
16A200
05CB40
02FF10
02FF00
02DE00
02DE00
02DC00
015700
000100
ENDCHAR
STARTCHAR Aacute
ENCODING 193
SWIDTH 494 0
DWIDTH 4 0
BBX 5 10 0 -2
BITMAP
001B30
009830
5CB400
2FF100
2FF000
2DE000
2DE000
2DC000
157000
001000
ENDCHAR
STARTCHAR Acircumflex
ENCODING 194
SWIDTH 494 0
DWIDTH 4 0
BBX 4 12 0 -2
BITMAP
0440
3FE1
9588
2002
5CB4
2FF1
2FF0
2DE0
2DE0
2DC0
1570
0010
ENDCHAR
STARTCHAR Atilde
ENCODING 195
SWIDTH 494 0
DWIDTH 4 0
BBX 4 11 0 -2
BITMAP
0010
AAE8
2853
5CB4
2FF1
2FF0
2DE0
2DE0
2DC0
1570
0010
ENDCHAR
STARTCHAR Adieresis
ENCODING 196
SWIDTH 494 0
DWIDTH 4 0
BBX 4 11 0 -2
BITMAP
3234
E9BE
8567
5CB4
2FF1
2FF0
2DE0
2DE0
2DC0
1570
0010
ENDCHAR
STARTCHAR Aring
ENCODING 197
SWIDTH 494 0
DWIDTH 4 0
BBX 4 11 0 -2
BITMAP
0660
0991
0760
5CB4
2FF1
2FF0
2DE0
2DE0
2DC0
1570
0010
ENDCHAR
STARTCHAR AE
ENCODING 198
SWIDTH 733 0
DWIDTH 6 0
BBX 6 8 0 -2
BITMAP
5CDDB5
2FFFF2
2FFCB0
2CEC40
2DEA30
2EEE80
156530
001000
ENDCHAR
STARTCHAR Ccedilla
ENCODING 199
SWIDTH 504 0
DWIDTH 4 0
BBX 4 10 0 -4
BITMAP
2CE5
AFFC
BFDC
8C46
6C54
2FE4
0360
0081
0059
0056
ENDCHAR
STARTCHAR Egrave
ENCODING 200
SWIDTH 570 0
DWIDTH 5 0
BBX 5 9 0 -1
BITMAP
870000
596000
7DDC10
4FFD00
3FB800
2FA100
0F7100
0CE300
022100
ENDCHAR
STARTCHAR Eacute
ENCODING 201
SWIDTH 570 0
DWIDTH 5 0
BBX 5 9 0 -1
BITMAP
000780
006950
7DDC10
4FFD00
3FB800
2FA100
0F7100
0CE300
022100
ENDCHAR
STARTCHAR Ecircumflex
ENCODING 202
SWIDTH 570 0
DWIDTH 5 0
BBX 5 11 0 -1
BITMAP
035000
0DF500
4A4D00
200200
7DDC10
4FFD00
3FB800
2FA100
0F7100
0CE300
022100
ENDCHAR
STARTCHAR Edieresis
ENCODING 203
SWIDTH 570 0
DWIDTH 5 0
BBX 5 10 0 -1
BITMAP
231510
9E6F40
583820
7DDC10
4FFD00
3FB800
2FA100
0F7100
0CE300
022100
ENDCHAR
STARTCHAR Igrave
ENCODING 204
SWIDTH 401 0
DWIDTH 3 0
BBX 4 9 -1 -1
BITMAP
4B10
3890
09EB
02F9
02F7
01F6
00E5
00B4
0021
ENDCHAR
STARTCHAR Iacute
ENCODING 205
SWIDTH 401 0
DWIDTH 3 0
BBX 5 9 0 -1
BITMAP
004B00
03A610
9EB000
2F9000
2F7000
1F6000
0E5000
0B4000
021000
ENDCHAR
STARTCHAR Icircumflex
ENCODING 206
SWIDTH 401 0
DWIDTH 3 0
BBX 5 11 -1 -1
BITMAP
015200
09F900
1C3D20
120200
09EB00
02F900
02F700
01F600
00E500
00B400
002100
ENDCHAR
STARTCHAR Idieresis
ENCODING 207
SWIDTH 401 0
DWIDTH 3 0
BBX 5 10 -1 -1
BITMAP
141420
5F5F80
392840
09EB00
02F900
02F700
01F600
00E500
00B400
002100
ENDCHAR
STARTCHAR Eth
ENCODING 208
SWIDTH 530 0
DWIDTH 4 0
BBX 5 7 0 -1
BITMAP
3BDA00
1FFF50
0DDF50
4DAC20
0A6C00
08DB00
035100
ENDCHAR
STARTCHAR Ntilde
ENCODING 209
SWIDTH 610 0
DWIDTH 5 0
BBX 5 10 0 -2
BITMAP
4CCD10
085500
7C7C40
4FAF10
3FFF00
1FFD00
0DCB00
0C8A00
064400
011000
ENDCHAR
STARTCHAR Ograve
ENCODING 210
SWIDTH 504 0
DWIDTH 4 0
BBX 5 9 -1 -1
BITMAP
0B3000
16A200
02BC40
0BFFC0
0AEEC0
08AAC0
06BA80
03EE40
002500
ENDCHAR
STARTCHAR Oacute
ENCODING 211
SWIDTH 504 0
DWIDTH 4 0
BBX 5 9 0 -1
BITMAP
001B30
009830
2BC400
BFFC00
AEEC00
8AAC00
6BA800
3EE400
025000
ENDCHAR
STARTCHAR Ocircumflex
ENCODING 212
SWIDTH 504 0
DWIDTH 4 0
BBX 4 11 0 -1
BITMAP
0430
3FE1
A598
2002
2BC4
BFFC
AEEC
8AAC
6BA8
3EE4
0250
ENDCHAR
STARTCHAR Otilde
ENCODING 213
SWIDTH 504 0
DWIDTH 4 0
BBX 4 10 0 -1
BITMAP
0010
C9E6
4752
2BC4
BFFC
AEEC
8AAC
6BA8
3EE4
0250
ENDCHAR
STARTCHAR Odieresis
ENCODING 214
SWIDTH 504 0
DWIDTH 4 0
BBX 4 10 0 -1
BITMAP
3234
E9BE
8567
2BC4
BFFC
AEEC
8AAC
6BA8
3EE4
0250
ENDCHAR
STARTCHAR multiply
ENCODING 215
SWIDTH 359 0
DWIDTH 3 0
BBX 3 4 0 1
BITMAP
3330
9F80
9F90
3230
ENDCHAR
STARTCHAR Oslash
ENCODING 216
SWIDTH 658 0
DWIDTH 5 0
BBX 7 7 -1 -1
BITMAP
01AD8110
07FFF700
07FCF300
04D9F200
02F6E000
05EEA000
11252000
ENDCHAR
STARTCHAR Ugrave
ENCODING 217
SWIDTH 637 0
DWIDTH 5 0
BBX 5 9 0 -1
BITMAP
4B1000
389000
7D4C70
4F5F60
2F6F30
1F5F00
0F8E00
0BC900
011100
ENDCHAR
STARTCHAR Uacute
ENCODING 218
SWIDTH 637 0
DWIDTH 5 0
BBX 6 9 0 -1
BITMAP
0004B0
002A61
7D4C70
4F5F60
2F6F30
1F5F00
0F8E00
0BC900
011100
ENDCHAR
STARTCHAR Ucircumflex
ENCODING 219
SWIDTH 637 0
DWIDTH 5 0
BBX 5 11 0 -1
BITMAP
015200
09FA00
1C3D20
120200
7D4C70
4F5F60
2F6F30
1F5F00
0F8E00
0BC900
011100
ENDCHAR
STARTCHAR Udieresis
ENCODING 220
SWIDTH 637 0
DWIDTH 5 0
BBX 5 10 0 -1
BITMAP
141430
5F5F80
292840
7D4C70
4F5F60
2F6F30
1F5F00
0F8E00
0BC900
011100
ENDCHAR
STARTCHAR Yacute
ENCODING 221
SWIDTH 688 0
DWIDTH 6 0
BBX 6 9 0 -1
BITMAP
0002C1
000A72
5D68A3
06EE80
00DF00
007E00
004D00
003C00
001200
ENDCHAR
STARTCHAR Thorn
ENCODING 222
SWIDTH 521 0
DWIDTH 4 0
BBX 4 9 0 -1
BITMAP
3420
CF30
AFD8
8FFE
7FBD
5F6A
2FB4
1F20
0710
ENDCHAR
STARTCHAR germandbls
ENCODING 223
SWIDTH 546 0
DWIDTH 4 0
BBX 5 7 0 -1
BITMAP
4BCA00
AFFF20
AFCE10
8D8A00
6DB700
4D9700
147200
ENDCHAR
STARTCHAR agrave
ENCODING 224
SWIDTH 479 0
DWIDTH 4 0
BBX 5 9 -1 -1
BITMAP
0A5000
16A300
07EE80
02FF40
02FF30
02EE30
03DD30
03EE20
026510
ENDCHAR
STARTCHAR aacute
ENCODING 225
SWIDTH 479 0
DWIDTH 4 0
BBX 5 9 0 -1
BITMAP
001A40
008830
7EE800
2FF400
2FF300
2EE300
3DD300
3EE200
265100
ENDCHAR
STARTCHAR acircumflex
ENCODING 226
SWIDTH 479 0
DWIDTH 4 0
BBX 4 11 0 -1
BITMAP
0440
2FF2
877A
2002
7EE8
2FF4
2FF3
2EE3
3DD3
3EE2
2651
ENDCHAR
STARTCHAR atilde
ENCODING 227
SWIDTH 479 0
DWIDTH 4 0
BBX 4 10 0 -1
BITMAP
0010
AAE8
3853
7EE8
2FF4
2FF3
2EE3
3DD3
3EE2
2651
ENDCHAR
STARTCHAR adieresis
ENCODING 228
SWIDTH 479 0
DWIDTH 4 0
BBX 4 10 0 -1
BITMAP
3225
DB9F
7658
7EE8
2FF4
2FF3
2EE3
3DD3
3EE2
2651
ENDCHAR
STARTCHAR aring
ENCODING 229
SWIDTH 479 0
DWIDTH 4 0
BBX 4 10 0 -1
BITMAP
0670
0A82
0670
7EE8
2FF4
2FF3
2EE3
3DD3
3EE2
2651
ENDCHAR
STARTCHAR ae
ENCODING 230
SWIDTH 755 0
DWIDTH 6 0
BBX 6 7 0 -1
BITMAP
7EEEC7
1FFFF4
1FFDE1
1FDB40
2DCD60
2EDD80
175330
ENDCHAR
STARTCHAR ccedilla
ENCODING 231
SWIDTH 534 0
DWIDTH 4 0
BBX 5 9 0 -3
BITMAP
2CE700
BFFF10
BFDF10
7E3900
5F3400
1FD600
03E000
008700
007500
ENDCHAR
STARTCHAR egrave
ENCODING 232
SWIDTH 632 0
DWIDTH 5 0
BBX 5 9 0 -1
BITMAP
5A0000
488000
6CDC70
4FFF40
1FDE10
0EA400
0CC600
09D800
013300
ENDCHAR
STARTCHAR eacute
ENCODING 233
SWIDTH 632 0
DWIDTH 5 0
BBX 6 9 0 -1
BITMAP
0005A0
003A61
6CDC70
4FFF40
1FDE10
0EA400
0CC600
09D800
013300
ENDCHAR
STARTCHAR ecircumflex
ENCODING 234
SWIDTH 632 0
DWIDTH 5 0
BBX 5 11 0 -1
BITMAP
025100
0AF800
2C3D10
110200
6CDC70
4FFF40
1FDE10
0EA400
0CC600
09D800
013300
ENDCHAR
STARTCHAR edieresis
ENCODING 235
SWIDTH 632 0
DWIDTH 5 0
BBX 5 10 0 -1
BITMAP
131420
6F5F70
392840
6CDC70
4FFF40
1FDE10
0EA400
0CC600
09D800
013300
ENDCHAR
STARTCHAR igrave
ENCODING 236
SWIDTH 411 0
DWIDTH 3 0
BBX 4 9 -1 -1
BITMAP
3B10
3890
07DB
01F9
01F6
00F6
00C4
00B3
0011
ENDCHAR
STARTCHAR iacute
ENCODING 237
SWIDTH 411 0
DWIDTH 3 0
BBX 5 9 0 -1
BITMAP
004B00
02A610
7DB000
1F9000
1F6000
0F6000
0C4000
0B3000
011000
ENDCHAR
STARTCHAR icircumflex
ENCODING 238
SWIDTH 411 0
DWIDTH 3 0
BBX 4 11 0 -1
BITMAP
0530
5FD0
B4A6
2011
7DB0
1F90
1F60
0F60
0C40
0B30
0110
ENDCHAR
STARTCHAR idieresis
ENCODING 239
SWIDTH 411 0
DWIDTH 3 0
BBX 5 10 -1 -1
BITMAP
141430
4F5F90
292850
07DB00
01F900
01F600
00F600
00C400
00B300
001100
ENDCHAR
STARTCHAR eth
ENCODING 240
SWIDTH 530 0
DWIDTH 4 0
BBX 5 7 0 -1
BITMAP
3BDA00
1FFF50
0DDF50
4DAC20
0A6C00
08DB00
035100
ENDCHAR
STARTCHAR ntilde
ENCODING 241
SWIDTH 664 0
DWIDTH 5 0
BBX 6 10 0 -1
BITMAP
000100
1DAE30
066610
8E7BB1
5FCC90
4FFE60
2FFF40
0FBF10
0D8D00
043500
ENDCHAR
STARTCHAR ograve
ENCODING 242
SWIDTH 545 0
DWIDTH 4 0
BBX 5 9 0 -1
BITMAP
A50000
6A4000
3CD700
BFFF20
AFDF30
8C7F10
5C8C00
2EE700
014200
ENDCHAR
STARTCHAR oacute
ENCODING 243
SWIDTH 545 0
DWIDTH 4 0
BBX 5 9 0 -1
BITMAP
000950
007940
3CD700
BFFF20
AFDF30
8C7F10
5C8C00
2EE700
014200
ENDCHAR
STARTCHAR ocircumflex
ENCODING 244
SWIDTH 545 0
DWIDTH 4 0
BBX 5 11 0 -1
BITMAP
034000
1EF300
786A00
200200
3CD700
BFFF20
AFDF30
8C7F10
5C8C00
2EE700
014200
ENDCHAR
STARTCHAR otilde
ENCODING 245
SWIDTH 545 0
DWIDTH 4 0
BBX 5 10 0 -1
BITMAP
001000
9AE800
285300
3CD700
BFFF20
AFDF30
8C7F10
5C8C00
2EE700
014200
ENDCHAR
STARTCHAR odieresis
ENCODING 246
SWIDTH 545 0
DWIDTH 4 0
BBX 5 10 0 -1
BITMAP
322500
CC8F10
674810
3CD700
BFFF20
AFDF30
8C7F10
5C8C00
2EE700
014200
ENDCHAR
STARTCHAR oslash
ENCODING 248
SWIDTH 676 0
DWIDTH 5 0
BBX 6 7 0 -1
BITMAP
2BD731
9FFF40
8FDF20
6DAF10
3D8C00
5EE800
014200
ENDCHAR
STARTCHAR ugrave
ENCODING 249
SWIDTH 708 0
DWIDTH 6 0
BBX 6 8 0 0
BITMAP
1C3000
27A100
5D77A4
3F89F1
0F9AC0
0D8BA0
0BAC70
05CD30
ENDCHAR
STARTCHAR uacute
ENCODING 250
SWIDTH 708 0
DWIDTH 6 0
BBX 6 8 0 0
BITMAP
0002C2
000A72
5D77A4
3F89F1
0F9AC0
0D8BA0
0BAC70
05CD30
ENDCHAR
STARTCHAR ucircumflex
ENCODING 251
SWIDTH 708 0
DWIDTH 6 0
BBX 6 10 0 0
BITMAP
005300
04FD00
0B4A60
020020
5D77A4
3F89F1
0F9AC0
0D8BA0
0BAC70
05CD30
ENDCHAR
STARTCHAR udieresis
ENCODING 252
SWIDTH 708 0
DWIDTH 6 0
BBX 6 9 0 0
BITMAP
042340
1F8CD0
084660
5D77A4
3F89F1
0F9AC0
0D8BA0
0BAC70
05CD30
ENDCHAR
STARTCHAR yacute
ENCODING 253
SWIDTH 604 0
DWIDTH 5 0
BBX 5 9 0 -1
BITMAP
000690
004A50
5D4B40
09DB00
04F500
01F400
00D300
00D200
004000
ENDCHAR
STARTCHAR thorn
ENCODING 254
SWIDTH 498 0
DWIDTH 4 0
BBX 4 9 0 -1
BITMAP
3410
CF10
AFD6
8FFB
7FBA
5F79
2FB3
1F20
0710
ENDCHAR
STARTCHAR ydieresis
ENCODING 255
SWIDTH 604 0
DWIDTH 5 0
BBX 5 10 0 -1
BITMAP
141430
4F5F90
293850
5D4B40
09DB00
04F500
01F400
00D300
00D200
004000
ENDCHAR
STARTCHAR Amacron
ENCODING 256
SWIDTH 494 0
DWIDTH 4 0
BBX 4 10 0 -2
BITMAP
2441
3AA3
5CB4
2FF1
2FF0
2DE0
2DE0
2DC0
1570
0010
ENDCHAR
STARTCHAR amacron
ENCODING 257
SWIDTH 479 0
DWIDTH 4 0
BBX 4 9 0 -1
BITMAP
1442
3A94
7EE8
2FF4
2FF3
2EE3
3DD3
3EE2
2651
ENDCHAR
STARTCHAR Abreve
ENCODING 258
SWIDTH 494 0
DWIDTH 4 0
BBX 4 11 0 -2
BITMAP
1816
0DD9
0132
5CB4
2FF1
2FF0
2DE0
2DE0
2DC0
1570
0010
ENDCHAR
STARTCHAR abreve
ENCODING 259
SWIDTH 479 0
DWIDTH 4 0
BBX 4 10 0 -1
BITMAP
1816
0DD9
0132
7EE8
2FF4
2FF3
2EE3
3DD3
3EE2
2651
ENDCHAR
STARTCHAR Aogonek
ENCODING 260
SWIDTH 494 0
DWIDTH 4 0
BBX 4 10 0 -4
BITMAP
5CB4
2FF1
2FF0
2DE0
2DE0
2DC0
17A0
0490
03E8
0034
ENDCHAR
STARTCHAR aogonek
ENCODING 261
SWIDTH 479 0
DWIDTH 4 0
BBX 5 9 0 -3
BITMAP
7EE800
2FF400
2FF300
2EE300
3DD300
3EE200
26B100
00C300
006D20
ENDCHAR
STARTCHAR Cacute
ENCODING 262
SWIDTH 504 0
DWIDTH 4 0
BBX 5 9 0 -1
BITMAP
004B00
02A610
2CE500
AFFC00
BFDC00
8C4600
6C5400
2FE400
036000
ENDCHAR
STARTCHAR cacute
ENCODING 263
SWIDTH 534 0
DWIDTH 4 0
BBX 5 9 0 -1
BITMAP
002C10
01B720
2CE700
BFFF10
BFDF10
7E3900
5F3400
1FD600
034000
ENDCHAR
STARTCHAR Ccircumflex
ENCODING 264
SWIDTH 504 0
DWIDTH 4 0
BBX 4 11 0 -1
BITMAP
0350
0EF4
695C
2002
2CE5
AFFC
BFDC
8C46
6C54
2FE4
0360
ENDCHAR
STARTCHAR ccircumflex
ENCODING 265
SWIDTH 534 0
DWIDTH 4 0
BBX 5 11 0 -1
BITMAP
025100
0BF800
2C3D10
110200
2CE700
BFFF10
BFDF10
7E3900
5F3400
1FD600
034000
ENDCHAR
STARTCHAR Cdotaccent
ENCODING 266
SWIDTH 504 0
DWIDTH 4 0
BBX 4 11 0 -1
BITMAP
0240
0DF2
0CF3
0210
2CE5
AFFC
BFDC
8C46
6C54
2FE4
0360
ENDCHAR
STARTCHAR cdotaccent
ENCODING 267
SWIDTH 534 0
DWIDTH 4 0
BBX 5 11 0 -1
BITMAP
024100
0BF500
09F500
011000
2CE700
BFFF10
BFDF10
7E3900
5F3400
1FD600
034000
ENDCHAR
STARTCHAR Ccaron
ENCODING 268
SWIDTH 504 0
DWIDTH 4 0
BBX 4 11 0 -1
BITMAP
3104
7A8A
1EF3
0340
2CE5
AFFC
BFDC
8C46
6C54
2FE4
0360
ENDCHAR
STARTCHAR ccaron
ENCODING 269
SWIDTH 534 0
DWIDTH 4 0
BBX 5 11 0 -1
BITMAP
130400
3E5E10
0BF700
025000
2CE700
BFFF10
BFDF10
7E3900
5F3400
1FD600
034000
ENDCHAR
STARTCHAR Dcaron
ENCODING 270
SWIDTH 522 0
DWIDTH 4 0
BBX 5 11 0 -1
BITMAP
140400
2E4E10
0AF800
024100
6BC700
6FFF00
3FDE00
2F3C00
0F5900
0CE600
037000
ENDCHAR
STARTCHAR dcaron
ENCODING 271
SWIDTH 522 0
DWIDTH 4 0
BBX 5 11 0 -1
BITMAP
140400
2E4E10
0AF800
024100
6BC700
6FFF00
3FDE00
2F3C00
0F5900
0CE600
037000
ENDCHAR
STARTCHAR Eth.dup2
ENCODING 272
SWIDTH 530 0
DWIDTH 4 0
BBX 5 7 0 -1
BITMAP
3BDA00
1FFF50
0DDF50
4DAC20
0A6C00
08DB00
035100
ENDCHAR
STARTCHAR Emacron
ENCODING 274
SWIDTH 570 0
DWIDTH 5 0
BBX 5 9 0 -1
BITMAP
044300
199600
7DDC10
4FFD00
3FB800
2FA100
0F7100
0CE300
022100
ENDCHAR
STARTCHAR emacron
ENCODING 275
SWIDTH 632 0
DWIDTH 5 0
BBX 5 9 0 -1
BITMAP
044300
08A700
6CDC70
4FFF40
1FDE10
0EA400
0CC600
09D800
013300
ENDCHAR
STARTCHAR Ebreve
ENCODING 276
SWIDTH 570 0
DWIDTH 5 0
BBX 5 10 0 -1
BITMAP
091610
09DD00
003300
7DDC10
4FFD00
3FB800
2FA100
0F7100
0CE300
022100
ENDCHAR
STARTCHAR ebreve
ENCODING 277
SWIDTH 632 0
DWIDTH 5 0
BBX 5 10 0 -1
BITMAP
055440
03DE40
001500
6CDC70
4FFF40
1FDE10
0EA400
0CC600
09D800
013300
ENDCHAR
STARTCHAR Edotaccent
ENCODING 278
SWIDTH 570 0
DWIDTH 5 0
BBX 5 11 0 -1
BITMAP
024100
0CF400
0AF400
011000
7DDC10
4FFD00
3FB800
2FA100
0F7100
0CE300
022100
ENDCHAR
STARTCHAR edotaccent
ENCODING 279
SWIDTH 632 0
DWIDTH 5 0
BBX 5 11 0 -1
BITMAP
024200
08F700
07F700
011100
6CDC70
4FFF40
1FDE10
0EA400
0CC600
09D800
013300
ENDCHAR
STARTCHAR Eogonek
ENCODING 280
SWIDTH 513 0
DWIDTH 4 0
BBX 5 9 0 -3
BITMAP
7DDC10
4FFD00
3FB800
2FA100
0F7100
0EF300
01C100
00D700
004800
ENDCHAR
STARTCHAR eogonek
ENCODING 281
SWIDTH 632 0
DWIDTH 5 0
BBX 5 9 0 -3
BITMAP
6CDC70
4FFF40
1FDE10
0EA400
0CC600
09D800
019500
007930
001840
ENDCHAR
STARTCHAR Ecaron
ENCODING 282
SWIDTH 570 0
DWIDTH 5 0
BBX 5 11 0 -1
BITMAP
140400
2E5E10
0AF800
024100
7DDC10
4FFD00
3FB800
2FA100
0F7100
0CE300
022100
ENDCHAR
STARTCHAR ecaron
ENCODING 283
SWIDTH 632 0
DWIDTH 5 0
BBX 5 11 0 -1
BITMAP
050220
0B7C60
04FD00
004300
6CDC70
4FFF40
1FDE10
0EA400
0CC600
09D800
013300
ENDCHAR
STARTCHAR Gcircumflex
ENCODING 284
SWIDTH 499 0
DWIDTH 4 0
BBX 4 11 0 -1
BITMAP
0440
3FE1
9588
2002
4CB3
AFFB
9EEB
7977
6BC9
2ED8
0461
ENDCHAR
STARTCHAR gcircumflex
ENCODING 285
SWIDTH 546 0
DWIDTH 4 0
BBX 5 11 0 -1
BITMAP
034000
1EF300
786B00
200200
3CC600
BFFF20
AFEF30
7C4B00
4E9C00
1FBD00
058500
ENDCHAR
STARTCHAR Gbreve
ENCODING 286
SWIDTH 499 0
DWIDTH 4 0
BBX 4 10 0 -1
BITMAP
4634
2ED6
0141
4CB3
AFFB
9EEB
7977
6BC9
2ED8
0461
ENDCHAR
STARTCHAR gbreve
ENCODING 287
SWIDTH 546 0
DWIDTH 4 0
BBX 5 10 0 -1
BITMAP
281600
0DD900
013200
3CC600
BFFF20
AFEF30
7C4B00
4E9C00
1FBD00
058500
ENDCHAR
STARTCHAR Gdotaccent
ENCODING 288
SWIDTH 499 0
DWIDTH 4 0
BBX 4 11 0 -1
BITMAP
0340
1FF0
0FF0
0210
4CB3
AFFB
9EEB
7977
6BC9
2ED8
0461
ENDCHAR
STARTCHAR gdotaccent
ENCODING 289
SWIDTH 546 0
DWIDTH 4 0
BBX 5 11 0 -1
BITMAP
034000
0EF200
0CF200
021000
3CC600
BFFF20
AFEF30
7C4B00
4E9C00
1FBD00
058500
ENDCHAR
STARTCHAR Gcommaaccent
ENCODING 290
SWIDTH 499 0
DWIDTH 4 0
BBX 4 11 0 -5
BITMAP
4CB3
AFFB
9EEB
7977
6BC9
2ED8
0461
07A2
0AF3
02B3
0081
ENDCHAR
STARTCHAR Hcircumflex
ENCODING 292
SWIDTH 726 0
DWIDTH 6 0
BBX 6 12 0 -2
BITMAP
005300
05FD00
0B4A60
020120
6B79C4
4F6AF1
1F6BB0
0ECE80
0C9E60
0B7E30
020510
001100
ENDCHAR
STARTCHAR hcircumflex
ENCODING 293
SWIDTH 730 0
DWIDTH 6 0
BBX 6 11 0 -1
BITMAP
005300
04FE10
0B4A70
020020
6C79D5
3F79F1
1F6AC0
0DDE80
0B9D60
0A7E40
010410
ENDCHAR
STARTCHAR hbar
ENCODING 295
SWIDTH 704 0
DWIDTH 6 0
BBX 6 7 0 -1
BITMAP
6C6CD3
3FDFD0
1FBE90
0DCE50
0B9E60
0A7E40
010410
ENDCHAR
STARTCHAR Itilde
ENCODING 296
SWIDTH 401 0
DWIDTH 3 0
BBX 5 10 -1 -1
BITMAP
000100
3CBE10
075600
09EB00
02F900
02F700
01F600
00E500
00B400
002100
ENDCHAR
STARTCHAR itilde
ENCODING 297
SWIDTH 411 0
DWIDTH 3 0
BBX 5 10 -1 -1
BITMAP
000100
3DBE20
076600
07DB00
01F900
01F600
00F600
00C400
00B300
001100
ENDCHAR
STARTCHAR Imacron
ENCODING 298
SWIDTH 401 0
DWIDTH 3 0
BBX 3 9 0 -1
BITMAP
4430
7A80
9EB0
2F90
2F70
1F60
0E50
0B40
0210
ENDCHAR
STARTCHAR imacron
ENCODING 299
SWIDTH 411 0
DWIDTH 3 0
BBX 3 9 0 -1
BITMAP
3440
7A90
7DB0
1F90
1F60
0F60
0C40
0B30
0110
ENDCHAR
STARTCHAR Ibreve
ENCODING 300
SWIDTH 401 0
DWIDTH 3 0
BBX 4 10 0 -1
BITMAP
7352
7DE1
0240
9EB0
2F90
2F70
1F60
0E50
0B40
0210
ENDCHAR
STARTCHAR ibreve
ENCODING 301
SWIDTH 411 0
DWIDTH 3 0
BBX 4 10 0 -1
BITMAP
8262
7DE1
0240
7DB0
1F90
1F60
0F60
0C40
0B30
0110
ENDCHAR
STARTCHAR Iogonek
ENCODING 302
SWIDTH 401 0
DWIDTH 3 0
BBX 3 10 0 -4
BITMAP
9EB0
2F90
2F70
1F60
0E50
0C40
0C10
1C00
0CD0
0010
ENDCHAR
STARTCHAR iogonek
ENCODING 303
SWIDTH 412 0
DWIDTH 3 0
BBX 3 9 0 -3
BITMAP
7DB0
1F90
1F60
0F60
0C40
0C30
0D10
1D20
09E0
ENDCHAR
STARTCHAR Idotaccent
ENCODING 304
SWIDTH 401 0
DWIDTH 3 0
BBX 3 11 0 -1
BITMAP
1420
7F80
6F80
1110
9EB0
2F90
2F70
1F60
0E50
0B40
0210
ENDCHAR
STARTCHAR dotlessi
ENCODING 305
SWIDTH 411 0
DWIDTH 3 0
BBX 3 7 0 -1
BITMAP
7DB0
1F90
1F60
0F60
0C40
0B30
0110
ENDCHAR
STARTCHAR IJ
ENCODING 306
SWIDTH 908 0
DWIDTH 7 0
BBX 7 7 0 -1
BITMAP
9EC01C90
2FB00D80
2F900E60
1F800E40
0E777E20
0A65DD00
01101100
ENDCHAR
STARTCHAR ij
ENCODING 307
SWIDTH 901 0
DWIDTH 7 0
BBX 7 7 0 -1
BITMAP
7DC04D80
1FB01F80
1F800F70
0F800E60
0C668E40
0A53EF10
00100200
ENDCHAR
STARTCHAR Jcircumflex
ENCODING 308
SWIDTH 455 0
DWIDTH 4 0
BBX 5 11 -1 -1
BITMAP
003500
00DF50
05A4C0
020020
008C20
007E00
008C00
008A00
1D8700
0DD400
011000
ENDCHAR
STARTCHAR jcircumflex
ENCODING 309
SWIDTH 458 0
DWIDTH 4 0
BBX 5 11 -1 -1
BITMAP
003500
00DF50
05A4C0
020020
00BC30
009F10
008E00
007D00
1E7C00
0BF900
002100
ENDCHAR
STARTCHAR Kcommaaccent
ENCODING 310
SWIDTH 580 0
DWIDTH 5 0
BBX 5 11 0 -5
BITMAP
7C6C20
2FB700
0EF300
0CF400
0AE500
097800
011200
04A500
06F800
017700
005400
ENDCHAR
STARTCHAR kcommaaccent
ENCODING 311
SWIDTH 636 0
DWIDTH 5 0
BBX 5 11 0 -5
BITMAP
6C6D70
2FAB00
0CD700
0BF300
08E700
077C00
011200
01B700
02FC00
005B00
002600
ENDCHAR
STARTCHAR kgreenlandic
ENCODING 312
SWIDTH 636 0
DWIDTH 5 0
BBX 5 7 0 -1
BITMAP
6C6D70
2FAB00
0CD700
0BF300
08E700
077C00
011200
ENDCHAR
STARTCHAR Lacute
ENCODING 313
SWIDTH 416 0
DWIDTH 3 0
BBX 5 9 0 -1
BITMAP
004B00
02A610
8D6000
6F3000
4F2000
2F2000
1F4100
0EF700
024200
ENDCHAR
STARTCHAR lacute
ENCODING 314
SWIDTH 438 0
DWIDTH 4 0
BBX 5 9 0 -1
BITMAP
002C10
01B720
6DA100
3F6000
2F6000
0D5000
0C6100
0BE800
022300
ENDCHAR
STARTCHAR Lcommaaccent
ENCODING 315
SWIDTH 416 0
DWIDTH 3 0
BBX 4 11 0 -5
BITMAP
8D60
6F30
4F20
2F20
1F41
0EF7
0242
0B80
1FD0
04C0
0270
ENDCHAR
STARTCHAR lcommaaccent
ENCODING 316
SWIDTH 438 0
DWIDTH 4 0
BBX 4 11 0 -5
BITMAP
6DA1
3F60
2F60
0D50
0C61
0BE8
0223
0A90
0EE0
03D0
0080
ENDCHAR
STARTCHAR Lcaron
ENCODING 317
SWIDTH 714 0
DWIDTH 6 0
BBX 6 7 0 -1
BITMAP
8D67A4
6F3AF6
4F26C6
2F2084
1F4110
0EF700
024200
ENDCHAR
STARTCHAR lcaron
ENCODING 318
SWIDTH 782 0
DWIDTH 6 0
BBX 6 7 0 -1
BITMAP
6DA2B9
3F62FE
2F619D
0D500C
0C6102
0BE800
022300
ENDCHAR
STARTCHAR Ldotaccent
ENCODING 319
SWIDTH 567 0
DWIDTH 5 0
BBX 5 7 0 -1
BITMAP
8D6000
6F5A90
4F4FD0
2F3A80
1F4100
0EF700
024200
ENDCHAR
STARTCHAR ldot
ENCODING 320
SWIDTH 660 0
DWIDTH 5 0
BBX 6 7 0 -1
BITMAP
6DA100
3F6242
2F68F7
0D57F7
0C6211
0BE800
022300
ENDCHAR
STARTCHAR Lslash
ENCODING 321
SWIDTH 428 0
DWIDTH 3 0
BBX 4 7 0 -1
BITMAP
7D60
4F42
5FF9
BF92
1E41
0CF7
0242
ENDCHAR
STARTCHAR lslash
ENCODING 322
SWIDTH 457 0
DWIDTH 4 0
BBX 4 7 0 -1
BITMAP
5DB1
2F85
3FFE
AFA2
1C71
09E9
0213
ENDCHAR
STARTCHAR Nacute
ENCODING 323
SWIDTH 610 0
DWIDTH 5 0
BBX 6 10 0 -2
BITMAP
0005A0
004A61
7C7C40
4FAF10
3FFF00
1FFD00
0DCB00
0C8A00
064400
011000
ENDCHAR
STARTCHAR nacute
ENCODING 324
SWIDTH 664 0
DWIDTH 5 0
BBX 6 9 0 -1
BITMAP
0003C1
001B72
8E7BB1
5FCC90
4FFE60
2FFF40
0FBF10
0D8D00
043500
ENDCHAR
STARTCHAR Ncommaaccent
ENCODING 325
SWIDTH 610 0
DWIDTH 5 0
BBX 5 12 0 -6
BITMAP
7C7C40
4FAF10
3FFF00
1FFD00
0DCB00
0C8A00
064400
011000
01B700
02FB00
005B00
002600
ENDCHAR
STARTCHAR ncommaaccent
ENCODING 326
SWIDTH 664 0
DWIDTH 5 0
BBX 6 11 0 -5
BITMAP
8E7BB1
5FCC90
4FFE60
2FFF40
0FBF10
0D8D00
043500
00A900
00EE00
003D00
000800
ENDCHAR
STARTCHAR Ncaron
ENCODING 327
SWIDTH 610 0
DWIDTH 5 0
BBX 5 12 0 -2
BITMAP
140400
1E4E20
09F900
014100
7C7C40
4FAF10
3FFF00
1FFD00
0DCB00
0C8A00
064400
011000
ENDCHAR
STARTCHAR ncaron
ENCODING 328
SWIDTH 664 0
DWIDTH 5 0
BBX 6 11 0 -1
BITMAP
040220
0A7B70
04FE10
004300
8E7BB1
5FCC90
4FFE60
2FFF40
0FBF10
0D8D00
043500
ENDCHAR
STARTCHAR Omacron
ENCODING 332
SWIDTH 504 0
DWIDTH 4 0
BBX 4 9 0 -1
BITMAP
2441
4AA2
2BC4
BFFC
AEEC
8AAC
6BA8
3EE4
0250
ENDCHAR
STARTCHAR omacron
ENCODING 333
SWIDTH 545 0
DWIDTH 4 0
BBX 5 9 0 -1
BITMAP
144200
2A9400
3CD700
BFFF20
AFDF30
8C7F10
5C8C00
2EE700
014200
ENDCHAR
STARTCHAR Obreve
ENCODING 334
SWIDTH 504 0
DWIDTH 4 0
BBX 4 10 0 -1
BITMAP
3725
1ED7
0131
2BC4
BFFC
AEEC
8AAC
6BA8
3EE4
0250
ENDCHAR
STARTCHAR obreve
ENCODING 335
SWIDTH 545 0
DWIDTH 4 0
BBX 5 10 0 -1
BITMAP
282600
0DD800
013200
3CD700
BFFF20
AFDF30
8C7F10
5C8C00
2EE700
014200
ENDCHAR
STARTCHAR Ohungarumlaut
ENCODING 336
SWIDTH 504 0
DWIDTH 4 0
BBX 4 11 0 -1
BITMAP
0211
2E6C
95A3
2020
2BC4
BFFC
AEEC
8AAC
6BA8
3EE4
0250
ENDCHAR
STARTCHAR ohungarumlaut
ENCODING 337
SWIDTH 545 0
DWIDTH 4 0
BBX 5 11 0 -1
BITMAP
020200
1E5E20
678400
202000
3CD700
BFFF20
AFDF30
8C7F10
5C8C00
2EE700
014200
ENDCHAR
STARTCHAR OE
ENCODING 338
SWIDTH 789 0
DWIDTH 6 0
BBX 6 7 0 -1
BITMAP
2BCDDA
BFFFF8
AEEEB4
8AAE90
6BAE60
3EEDE0
047530
ENDCHAR
STARTCHAR oe
ENCODING 339
SWIDTH 778 0
DWIDTH 6 0
BBX 6 7 0 -1
BITMAP
3CDCC8
BFFFF6
AEDFE3
7B8E50
4B9E80
1EEEA0
014330
ENDCHAR
STARTCHAR Racute
ENCODING 340
SWIDTH 599 0
DWIDTH 5 0
BBX 5 9 0 -1
BITMAP
000690
005A50
6CDB20
1FFF90
0EBE80
0CAE60
09DE10
088F10
012410
ENDCHAR
STARTCHAR racute
ENCODING 341
SWIDTH 616 0
DWIDTH 5 0
BBX 6 9 0 -1
BITMAP
0005A0
004A61
6CDB40
1FFFB0
0ECE90
0CBD60
0ADE10
0A9D00
032600
ENDCHAR
STARTCHAR Rcommaaccent
ENCODING 342
SWIDTH 599 0
DWIDTH 5 0
BBX 5 11 0 -5
BITMAP
6CDB20
1FFF90
0EBE80
0CAE60
09DE10
088F10
012410
03A600
05F900
017800
004400
ENDCHAR
STARTCHAR rcommaaccent
ENCODING 343
SWIDTH 616 0
DWIDTH 5 0
BBX 5 11 0 -5
BITMAP
6CDB40
1FFFB0
0ECE90
0CBD60
0ADE10
0A9D00
032600
02A700
03FA00
015A00
003600
ENDCHAR
STARTCHAR Rcaron
ENCODING 344
SWIDTH 599 0
DWIDTH 5 0
BBX 5 11 0 -1
BITMAP
050310
0D6D50
06FC00
004200
6CDB20
1FFF90
0EBE80
0CAE60
09DE10
088F10
012410
ENDCHAR
STARTCHAR rcaron
ENCODING 345
SWIDTH 616 0
DWIDTH 5 0
BBX 5 11 0 -1
BITMAP
050310
0D5E40
07FB00
014200
6CDB40
1FFFB0
0ECE90
0CBD60
0ADE10
0A9D00
032600
ENDCHAR
STARTCHAR Sacute
ENCODING 346
SWIDTH 504 0
DWIDTH 4 0
BBX 5 9 0 -1
BITMAP
001B30
00A830
2AD500
9FFD00
CEEC00
8E9300
28D800
5EE400
034000
ENDCHAR
STARTCHAR sacute
ENCODING 347
SWIDTH 481 0
DWIDTH 4 0
BBX 5 9 0 -1
BITMAP
002C20
00A720
2BC300
AFFA00
CEE800
9E9300
19E200
5ED100
053000
ENDCHAR
STARTCHAR Scircumflex
ENCODING 348
SWIDTH 504 0
DWIDTH 4 0
BBX 4 11 0 -1
BITMAP
0350
0DF5
5A4C
2002
2AD5
9FFD
CEEC
8E93
28D8
5EE4
0340
ENDCHAR
STARTCHAR scircumflex
ENCODING 349
SWIDTH 481 0
DWIDTH 4 0
BBX 4 11 0 -1
BITMAP
0340
1EF4
685B
2002
2BC3
AFFA
CEE8
9E93
19E2
5ED1
0530
ENDCHAR
STARTCHAR Scedilla
ENCODING 350
SWIDTH 504 0
DWIDTH 4 0
BBX 4 9 0 -3
BITMAP
2AD5
9FFD
CEEC
8E93
28D8
5EE4
05B0
02B2
0291
ENDCHAR
STARTCHAR scedilla
ENCODING 351
SWIDTH 481 0
DWIDTH 4 0
BBX 4 9 0 -3
BITMAP
2BC3
AFFA
CEE8
9E93
19E2
5ED1
0C60
04B0
0480
ENDCHAR
STARTCHAR Scaron
ENCODING 352
SWIDTH 503 0
DWIDTH 4 0
BBX 4 11 0 -1
BITMAP
874A
3ED6
09A0
0000
2AD5
AFFC
CEEC
9E93
28D8
5EE4
0340
ENDCHAR
STARTCHAR scaron
ENCODING 353
SWIDTH 479 0
DWIDTH 4 0
BBX 4 11 0 -1
BITMAP
9459
5DE5
0BA0
0000
2CC3
AFF9
CEE8
9E83
19E2
5ED1
0530
ENDCHAR
STARTCHAR Tcommaaccent
ENCODING 354
SWIDTH 622 0
DWIDTH 5 0
BBX 5 10 0 -4
BITMAP
6CDC50
4FFF50
2EFE40
00F400
00F300
00E300
00A200
009000
007800
007500
ENDCHAR
STARTCHAR tcommaaccent
ENCODING 355
SWIDTH 683 0
DWIDTH 5 0
BBX 6 10 0 -4
BITMAP
7DEEB1
4FFFB0
1EFE90
01B900
00A900
009900
006700
006300
004B00
004800
ENDCHAR
STARTCHAR Tcaron
ENCODING 356
SWIDTH 622 0
DWIDTH 5 0
BBX 5 11 0 -1
BITMAP
140400
1E4E20
09F900
014100
6CDC50
4FFF50
2EFE40
00F400
00F300
00E300
00A200
ENDCHAR
STARTCHAR tcaron
ENCODING 357
SWIDTH 622 0
DWIDTH 5 0
BBX 5 11 0 -1
BITMAP
050310
0D5D40
06FC00
014200
6CDC50
4FFF50
2EFE40
00F400
00F300
00E300
00A200
ENDCHAR
STARTCHAR Utilde
ENCODING 360
SWIDTH 637 0
DWIDTH 5 0
BBX 5 10 0 -1
BITMAP
000100
3DBE10
075600
7D4C70
4F5F60
2F6F30
1F5F00
0F8E00
0BC900
011100
ENDCHAR
STARTCHAR utilde
ENCODING 361
SWIDTH 708 0
DWIDTH 6 0
BBX 6 9 0 0
BITMAP
000100
0D9F50
057510
5D77A4
3F89F1
0F9AC0
0D8BA0
0BAC70
05CD30
ENDCHAR
STARTCHAR Umacron
ENCODING 362
SWIDTH 637 0
DWIDTH 5 0
BBX 5 9 0 -1
BITMAP
034400
07A800
7D4C70
4F5F60
2F6F30
1F5F00
0F8E00
0BC900
011100
ENDCHAR
STARTCHAR umacron
ENCODING 363
SWIDTH 708 0
DWIDTH 6 0
BBX 6 8 0 0
BITMAP
024410
04AA10
5D77A4
3F89F1
0F9AC0
0D8BA0
0BAC70
05CD30
ENDCHAR
STARTCHAR Ubreve
ENCODING 364
SWIDTH 637 0
DWIDTH 5 0
BBX 5 10 0 -1
BITMAP
073520
06DE10
001500
7D4C70
4F5F60
2F6F30
1F5F00
0F8E00
0BC900
011100
ENDCHAR
STARTCHAR ubreve
ENCODING 365
SWIDTH 708 0
DWIDTH 6 0
BBX 6 9 0 0
BITMAP
046340
02ED60
001410
5D77A4
3F89F1
0F9AC0
0D8BA0
0BAC70
05CD30
ENDCHAR
STARTCHAR Uring
ENCODING 366
SWIDTH 637 0
DWIDTH 5 0
BBX 5 10 0 -1
BITMAP
018300
055900
029300
7D4C70
4F5F60
2F6F30
1F5F00
0F8E00
0BC900
011100
ENDCHAR
STARTCHAR uring
ENCODING 367
SWIDTH 708 0
DWIDTH 6 0
BBX 6 9 0 0
BITMAP
006600
00A910
006600
5D77A4
3F89F1
0F9AC0
0D8BA0
0BAC70
05CD30
ENDCHAR
STARTCHAR Uhungarumlaut
ENCODING 368
SWIDTH 637 0
DWIDTH 5 0
BBX 5 11 0 -1
BITMAP
010200
089B70
1C3A00
011100
7D4C70
4F5F60
2F6F30
1F5F00
0F8E00
0BC900
011100
ENDCHAR
STARTCHAR uhungarumlaut
ENCODING 369
SWIDTH 708 0
DWIDTH 6 0
BBX 6 10 0 0
BITMAP
002110
04D7B0
0A4B20
020200
5D77A4
3F89F1
0F9AC0
0D8BA0
0BAC70
05CD30
ENDCHAR
STARTCHAR Uogonek
ENCODING 370
SWIDTH 637 0
DWIDTH 5 0
BBX 5 8 0 -2
BITMAP
7D4C70
4F5F60
2F6F30
1F5F00
0F8E00
0BFB00
01A400
005E50
ENDCHAR
STARTCHAR uogonek
ENCODING 371
SWIDTH 662 0
DWIDTH 5 0
BBX 6 8 0 -2
BITMAP
6D78A4
3F8AF1
1F9AB0
0E8B90
0BAD70
06FF30
00C100
007F30
ENDCHAR
STARTCHAR Wcircumflex
ENCODING 372
SWIDTH 777 0
DWIDTH 6 0
BBX 6 10 0 0
BITMAP
004400
01EF30
0776A0
020020
5B69A9
1EBDE4
0AFFC0
04FF90
01FC60
009A20
ENDCHAR
STARTCHAR wcircumflex
ENCODING 373
SWIDTH 704 0
DWIDTH 6 0
BBX 6 10 0 0
BITMAP
004300
04FE10
0A4A70
020020
6B75A3
1EBCE0
0BFF80
06FF60
02FD50
009B20
ENDCHAR
STARTCHAR Ycircumflex
ENCODING 374
SWIDTH 688 0
DWIDTH 6 0
BBX 6 11 0 -1
BITMAP
005300
05FD00
0B4A60
020110
5D68A3
06EE80
00DF00
007E00
004D00
003C00
001200
ENDCHAR
STARTCHAR ycircumflex
ENCODING 375
SWIDTH 604 0
DWIDTH 5 0
BBX 5 11 0 -1
BITMAP
025100
0BF700
3C3D10
110200
5D4B40
09DB00
04F500
01F400
00D300
00D200
004000
ENDCHAR
STARTCHAR Ydieresis
ENCODING 376
SWIDTH 688 0
DWIDTH 6 0
BBX 6 10 0 -1
BITMAP
042340
1F7DC0
184760
5D68A3
06EE80
00DF00
007E00
004D00
003C00
001200
ENDCHAR
STARTCHAR Zacute
ENCODING 377
SWIDTH 695 0
DWIDTH 6 0
BBX 6 9 0 -1
BITMAP
0001B3
000983
6DEDA3
4FFFD0
0EDF60
01C800
03D100
09FA00
001100
ENDCHAR
STARTCHAR zacute
ENCODING 378
SWIDTH 622 0
DWIDTH 5 0
BBX 6 9 0 -1
BITMAP
0005A0
003A61
7DED60
3FFF40
0DEE10
01D400
02C000
07F900
012200
ENDCHAR
STARTCHAR Zdotaccent
ENCODING 379
SWIDTH 695 0
DWIDTH 6 0
BBX 6 11 0 -1
BITMAP
013300
02FE00
00FE00
002100
6DEDA3
4FFFD0
0EDF60
01C800
03D100
09FA00
001100
ENDCHAR
STARTCHAR zdotaccent
ENCODING 380
SWIDTH 622 0
DWIDTH 5 0
BBX 5 11 0 -1
BITMAP
024200
08F700
07F700
011100
7DED60
3FFF40
0DEE10
01D400
02C000
07F900
012200
ENDCHAR
STARTCHAR Zcaron
ENCODING 381
SWIDTH 693 0
DWIDTH 6 0
BBX 6 11 0 -1
BITMAP
0A4770
05DE20
00A800
000000
6DEDA3
4FFFD0
0EDF60
01C800
03D100
08FA00
001100
ENDCHAR
STARTCHAR zcaron
ENCODING 382
SWIDTH 621 0
DWIDTH 5 0
BBX 5 11 0 -1
BITMAP
1D1C20
0BDB00
04A400
000000
7DED60
3FFF40
0EEE10
01D400
02C000
07F900
012200
ENDCHAR
STARTCHAR DZ
ENCODING 497
SWIDTH 194 0
DWIDTH 2 0
BBX 1 1 0 0
BITMAP
00
ENDCHAR
STARTCHAR Dz
ENCODING 498
SWIDTH 194 0
DWIDTH 2 0
BBX 1 1 0 0
BITMAP
00
ENDCHAR
STARTCHAR dotlessj
ENCODING 567
SWIDTH 458 0
DWIDTH 4 0
BBX 5 7 -1 -1
BITMAP
00BC30
009F10
008E00
007D00
1E7C00
0BF900
002100
ENDCHAR
STARTCHAR circumflex
ENCODING 710
SWIDTH 528 0
DWIDTH 4 0
BBX 4 4 0 5
BITMAP
0340
1EF3
786B
2002
ENDCHAR
STARTCHAR caron
ENCODING 711
SWIDTH 486 0
DWIDTH 4 0
BBX 4 4 0 5
BITMAP
4113
98A8
3FE1
0430
ENDCHAR
STARTCHAR breve
ENCODING 728
SWIDTH 464 0
DWIDTH 4 0
BBX 4 3 0 -1
BITMAP
6452
6DE2
0150
ENDCHAR
STARTCHAR dotaccent
ENCODING 729
SWIDTH 388 0
DWIDTH 3 0
BBX 3 4 0 1
BITMAP
1320
7F90
5F90
1110
ENDCHAR
STARTCHAR ring
ENCODING 730
SWIDTH 370 0
DWIDTH 3 0
BBX 3 3 0 2
BITMAP
2820
8470
3910
ENDCHAR
STARTCHAR ogonek
ENCODING 731
SWIDTH 360 0
DWIDTH 3 0
BBX 3 3 0 0
BITMAP
5400
8500
3E70
ENDCHAR
STARTCHAR tilde
ENCODING 732
SWIDTH 535 0
DWIDTH 4 0
BBX 4 3 0 -1
BITMAP
0010
7BDB
1844
ENDCHAR
STARTCHAR hungarumlaut
ENCODING 733
SWIDTH 554 0
DWIDTH 4 0
BBX 5 4 0 5
BITMAP
020100
1E5D10
769400
202000
ENDCHAR
STARTCHAR dotaccentcmb
ENCODING 775
SWIDTH 396 0
DWIDTH 3 0
BBX 3 3 0 3
BITMAP
3740
6F90
5D80
ENDCHAR
STARTCHAR uni030F
ENCODING 783
SWIDTH 549 0
DWIDTH 4 0
BBX 4 4 0 5
BITMAP
0111
8AA7
1B3B
0112
ENDCHAR
STARTCHAR uni0311
ENCODING 785
SWIDTH 490 0
DWIDTH 4 0
BBX 4 2 0 3
BITMAP
2DD1
7885
ENDCHAR
STARTCHAR uni0326
ENCODING 806
SWIDTH 360 0
DWIDTH 3 0
BBX 3 4 0 -1
BITMAP
5A40
7F70
2860
0630
ENDCHAR
STARTCHAR endash
ENCODING 8211
SWIDTH 478 0
DWIDTH 4 0
BBX 4 2 0 2
BITMAP
7DC4
5AA2
ENDCHAR
STARTCHAR emdash
ENCODING 8212
SWIDTH 567 0
DWIDTH 5 0
BBX 4 2 0 2
BITMAP
7CDC
5A99
ENDCHAR
STARTCHAR quoteleft
ENCODING 8216
SWIDTH 373 0
DWIDTH 3 0
BBX 3 4 0 2
BITMAP
4600
7830
8F80
7E70
ENDCHAR
STARTCHAR quoteright
ENCODING 8217
SWIDTH 369 0
DWIDTH 3 0
BBX 3 4 0 2
BITMAP
7C50
9F70
4B60
0840
ENDCHAR
STARTCHAR quotesinglbase
ENCODING 8218
SWIDTH 369 0
DWIDTH 3 0
BBX 3 4 0 2
BITMAP
7C50
9F70
4B60
0840
ENDCHAR
STARTCHAR quotedblleft
ENCODING 8220
SWIDTH 687 0
DWIDTH 6 0
BBX 6 4 0 2
BITMAP
460A00
793D50
8F8FF1
7E8EF0
ENDCHAR
STARTCHAR quotedblright
ENCODING 8221
SWIDTH 677 0
DWIDTH 5 0
BBX 5 4 0 2
BITMAP
8D4CB0
9F6FE0
5B57D0
0831B0
ENDCHAR
STARTCHAR quotedblbase
ENCODING 8222
SWIDTH 697 0
DWIDTH 6 0
BBX 6 5 0 -3
BITMAP
463661
9F7EF2
8E7CF2
0750B1
032050
ENDCHAR
STARTCHAR ellipsis
ENCODING 8230
SWIDTH 1462 0
DWIDTH 12 0
BBX 12 3 0 0
BITMAP
6C501B9008C3
6F600FC009F4
483008600582
ENDCHAR
STARTCHAR guilsinglleft
ENCODING 8249
SWIDTH 459 0
DWIDTH 4 0
BBX 4 5 0 0
BITMAP
0BD2
5F70
9F20
1CB1
0162
ENDCHAR
STARTCHAR guilsinglright
ENCODING 8250
SWIDTH 432 0
DWIDTH 3 0
BBX 4 5 0 0
BITMAP
7E40
0CC0
09F1
5F60
3500
ENDCHAR
STARTCHAR fraction
ENCODING 8260
SWIDTH 371 0
DWIDTH 3 0
BBX 3 7 0 -1
BITMAP
9E90
3F70
3F40
2F40
0E20
0D10
0100
ENDCHAR
STARTCHAR Euro
ENCODING 8364
SWIDTH 587 0
DWIDTH 5 0
BBX 5 8 0 -2
BITMAP
08EB10
2FFF50
1FDF50
6F7820
5E8800
09EC00
007200
002000
ENDCHAR
STARTCHAR trademark
ENCODING 8482
SWIDTH 785 0
DWIDTH 6 0
BBX 6 4 0 2
BITMAP
AE8CBC
7E6AFB
0B08CA
0A0444
ENDCHAR
STARTCHAR minus
ENCODING 8722
SWIDTH 478 0
DWIDTH 4 0
BBX 4 2 0 2
BITMAP
7DC4
5AA2
ENDCHAR
STARTCHAR commaaccent
ENCODING 63171
SWIDTH 360 0
DWIDTH 3 0
BBX 3 5 0 -2
BITMAP
6A40
9F70
6C70
0750
0110
ENDCHAR
STARTCHAR .notdef
ENCODING -1
SWIDTH 365 0
DWIDTH 3 0
BBX 3 6 0 0
BITMAP
3420
4040
4040
4040
4040
6440
ENDCHAR
STARTCHAR .null
ENCODING -1
SWIDTH 0 0
DWIDTH 0 0
BBX 1 1 0 0
BITMAP
00
ENDCHAR
STARTCHAR nonmarkingreturn
ENCODING -1
SWIDTH 333 0
DWIDTH 3 0
BBX 1 1 0 0
BITMAP
00
ENDCHAR
ENDFONT
